<?xml version="1.0" standalone="no"?>
<!DOCTYPE svg PUBLIC "-//W3C//DTD SVG 20010904//EN"
 "http://www.w3.org/TR/2001/REC-SVG-20010904/DTD/svg10.dtd">
<svg version="1.0" xmlns="http://www.w3.org/2000/svg"
 width="1200.000000pt" height="1200.000000pt" viewBox="0 0 1200.000000 1200.000000"
 preserveAspectRatio="xMidYMid meet">
<metadata>
Created by potrace 1.11, written by Peter Selinger 2001-2013
</metadata>
<g transform="translate(0.000000,1200.000000) scale(0.100000,-0.100000)"
fill="#000000" stroke="none">
<path d="M4075 9249 c-962 -544 -1753 -993 -1757 -997 -4 -4 274 -170 618
-369 l625 -360 1139 626 1140 626 0 733 c0 402 -3 732 -7 732 -5 -1 -795 -446
-1758 -991z"/>
<path d="M6142 9508 l3 -732 1140 -627 1140 -626 46 26 c655 375 1206 697
1201 702 -13 13 -3515 1989 -3523 1989 -5 0 -8 -315 -7 -732z"/>
<path d="M4928 7937 c-582 -320 -1057 -586 -1055 -590 2 -8 2022 -1179 2093
-1214 l31 -15 1061 613 c820 473 1059 616 1050 624 -15 14 -2085 1152 -2108
1159 -8 2 -491 -257 -1072 -577z"/>
<path d="M2160 5945 c0 -1120 4 -2035 8 -2033 5 2 288 165 630 362 l622 359
-2 1314 -3 1315 -615 355 c-338 195 -621 357 -627 360 -10 4 -13 -406 -13
-2032z"/>
<path d="M9188 7618 l-628 -363 0 -1310 1 -1310 625 -360 c343 -198 629 -361
634 -363 7 -2 10 710 10 2032 0 1120 -3 2036 -7 2036 -5 0 -290 -163 -635
-362z"/>
<path d="M3720 5926 l0 -1154 1051 -579 c579 -318 1058 -579 1065 -581 12 -3
14 179 14 1121 l0 1125 -1059 611 c-582 336 -1061 611 -1065 611 -3 0 -6 -519
-6 -1154z"/>
<path d="M7195 6471 l-1050 -608 -3 -1126 c-1 -620 1 -1127 4 -1127 4 0 483
262 1065 582 l1059 582 0 1153 c0 916 -3 1153 -12 1152 -7 0 -485 -274 -1063
-608z"/>
<path d="M3051 4076 c-354 -205 -643 -376 -643 -381 0 -7 3416 -1945 3428
-1945 2 0 4 341 4 759 l0 759 -1042 572 c-574 315 -1056 581 -1073 590 l-30
18 -644 -372z"/>
<path d="M7208 3852 l-1068 -587 0 -759 c0 -675 2 -757 15 -752 17 6 3390
1913 3418 1931 15 10 -71 63 -626 384 -355 204 -651 371 -658 371 -8 -1 -494
-265 -1081 -588z"/>
</g>
</svg>
